HIERARCHY
ROOT Hips
{
	OFFSET 0.000000 0.000000 0.000000
	CHANNELS 6 Xposition Yposition Zposition Xrotation Yrotation Zrotation
	JOINT LeftUpLeg_virtual
	{
		OFFSET 0.000000 0.000000 0.000000
		CHANNELS 3 Xrotation Yrotation Zrotation
		JOINT LeftUpLeg
		{
			OFFSET 13.026900 -6.336304 -1.092800
			CHANNELS 3 Xrotation Yrotation Zrotation
			JOINT LeftLeg
			{
				OFFSET 0.524474 -46.096886 9.782700
				CHANNELS 3 Xrotation Yrotation Zrotation
				JOINT LeftFoot
				{
					OFFSET -0.524474 -53.427422 -12.948200
					CHANNELS 3 Xrotation Yrotation Zrotation
					JOINT LeftToeBase
					{
						OFFSET 0.192200 -14.009700 16.364100
						CHANNELS 3 Xrotation Yrotation Zrotation
						JOINT LeftToe_End
						{
							OFFSET -1.784700 -0.561700 9.474800
							CHANNELS 3 Xrotation Yrotation Zrotation
							End Site
							{
								OFFSET 0 0 0
							}
						}
					}
				}
			}
		}
	}
	JOINT RightUpLeg_virtual
	{
		OFFSET 0.000000 0.000000 0.000000
		CHANNELS 3 Xrotation Yrotation Zrotation
		JOINT RightUpLeg
		{
			OFFSET -12.883000 -6.336304 -1.092800
			CHANNELS 3 Xrotation Yrotation Zrotation
			JOINT RightLeg
			{
				OFFSET -0.524587 -46.096825 9.782800
				CHANNELS 3 Xrotation Yrotation Zrotation
				JOINT RightFoot
				{
					OFFSET 0.524587 -53.427383 -12.948300
					CHANNELS 3 Xrotation Yrotation Zrotation
					JOINT RightToeBase
					{
						OFFSET -0.192200 -14.009700 16.364100
						CHANNELS 3 Xrotation Yrotation Zrotation
						JOINT RightToe_End
						{
							OFFSET 1.784700 -0.561700 9.474800
							CHANNELS 3 Xrotation Yrotation Zrotation
							End Site
							{
								OFFSET 0 0 0
							}
						}
					}
				}
			}
		}
	}
	JOINT Spine_virtual
	{
		OFFSET 0.000000 0.000000 0.000000
		CHANNELS 3 Xrotation Yrotation Zrotation
		JOINT Spine
		{
			OFFSET 0.072000 7.257294 -0.789700
			CHANNELS 3 Xrotation Yrotation Zrotation
			JOINT Spine1
			{
				OFFSET 0.000000 12.508769 -0.658067
				CHANNELS 3 Xrotation Yrotation Zrotation
				JOINT Spine1_split
				{
					OFFSET 0.000000 12.508769 -0.658067
					CHANNELS 3 Xrotation Yrotation Zrotation
					JOINT Spine2
					{
						OFFSET 0.000000 12.508769 -0.658067
						CHANNELS 3 Xrotation Yrotation Zrotation
						JOINT Neck_virtual
						{
							OFFSET 0.000000 0.000000 0.000000
							CHANNELS 3 Xrotation Yrotation Zrotation
							JOINT Neck
							{
								OFFSET 0.000000 14.033295 7.520400
								CHANNELS 3 Xrotation Yrotation Zrotation
								JOINT Head
								{
									OFFSET 0.000000 8.198502 5.703100
									CHANNELS 3 Xrotation Yrotation Zrotation
									JOINT HeadTop_End
									{
										OFFSET 0.000000 17.760803 13.332701
										CHANNELS 3 Xrotation Yrotation Zrotation
										End Site
										{
											OFFSET 0 0 0
										}
									}
								}
							}
						}
						JOINT LeftShoulder_virtual
						{
							OFFSET 0.000000 0.000000 0.000000
							CHANNELS 3 Xrotation Yrotation Zrotation
							JOINT LeftShoulder
							{
								OFFSET 6.292450 5.785301 -0.669000
								CHANNELS 3 Xrotation Yrotation Zrotation
								JOINT LeftShoulder_split
								{
									OFFSET 6.292450 5.785301 -0.669000
									CHANNELS 3 Xrotation Yrotation Zrotation
									JOINT LeftArm
									{
										OFFSET 13.907140 -6.093903 1.965100
										CHANNELS 3 Xrotation Yrotation Zrotation
										JOINT LeftForeArm
										{
											OFFSET 34.140198 0.000000 0.000000
											CHANNELS 3 Xrotation Yrotation Zrotation
											JOINT LeftHand
											{
												OFFSET 40.960209 0.000000 0.000000
												CHANNELS 3 Xrotation Yrotation Zrotation
												End Site
												{
													OFFSET 0 0 0
												}
											}
										}
									}
								}
							}
						}
						JOINT RightShoulder_virtual
						{
							OFFSET 0.000000 0.000000 0.000000
							CHANNELS 3 Xrotation Yrotation Zrotation
							JOINT RightShoulder
							{
								OFFSET -6.292450 5.785301 -0.669000
								CHANNELS 3 Xrotation Yrotation Zrotation
								JOINT RightShoulder_split
								{
									OFFSET -6.292450 5.785301 -0.669000
									CHANNELS 3 Xrotation Yrotation Zrotation
									JOINT RightArm
									{
										OFFSET -13.907140 -6.093903 1.965100
										CHANNELS 3 Xrotation Yrotation Zrotation
										JOINT RightForeArm
										{
											OFFSET -34.140198 0.000000 0.000000
											CHANNELS 3 Xrotation Yrotation Zrotation
											JOINT RightHand
											{
												OFFSET -40.960209 0.000000 0.000000
												CHANNELS 3 Xrotation Yrotation Zrotation
												End Site
												{
													OFFSET 0 0 0
												}
											}
										}
									}
								}
							}
						}
					}
				}
			}
		}
	}
}
MOTION
Frames: 7
Frame Time: 0.03333333
-0.936714 119.554352 -15.732218 0.000000 0.000000 0.000000 -5.546474 -3.245103 4.308238 -7.770574 16.467395 -2.819709 12.832624 1.379810 4.230512 -1.100792 1.092494 -1.915983 0.155880 -1.922737 0.191097 0.000000 0.000000 0.000000 -5.509719 -3.786954 4.161944 -7.576211 -10.484377 -5.392688 17.988867 3.363985 -3.245478 -7.057398 -14.714937 10.360745 -0.812994 3.208471 -8.803506 0.000000 0.000000 0.000000 -6.891879 3.056232 4.711407 7.607685 -5.568865 -1.904197 9.665943 2.792345 -3.185505 0.067726 -0.879165 -0.046029 0.000000 0.000000 0.000000 10.917058 4.657158 -1.793076 3.576406 2.188189 6.773575 13.370459 -44.921437 2.308112 0.000000 0.000000 0.000000 9.967980 4.285589 -2.776104 1.074446 -9.869973 -23.529445 4.674689 -9.789264 -5.168863 -4.686972 -54.571063 -38.871310 13.906802 -15.610493 13.428398 0.000000 0.000000 0.000000 9.150425 2.696922 -3.566306 -1.370370 19.935784 23.684535 -6.836603 -2.583681 4.532214 0.474775 39.854226 46.069496 14.619006 29.275581 1.713751 0.000000 0.000000 0.000000 
-0.294989 120.403763 -15.784582 0.000000 0.000000 0.000000 -6.533864 -4.298709 5.243515 -4.550354 17.711464 -4.074323 9.698860 1.276885 4.029605 -0.981990 1.119219 -1.776000 1.525713 -1.854414 0.294725 0.000000 0.000000 0.000000 -6.505612 -4.119124 5.053806 -5.579607 -11.461483 -6.136607 15.911073 3.648515 -3.025446 -7.438963 -14.005307 9.154967 -0.299160 3.021947 -8.629442 0.000000 0.000000 0.000000 -8.223609 2.549107 5.193273 7.287683 -5.257974 -2.345499 8.486181 2.217000 -3.389072 0.139924 -0.885810 0.065738 0.000000 0.000000 0.000000 9.903505 4.118318 -1.776133 3.451281 2.665664 6.027864 11.888695 -41.596351 3.721891 0.000000 0.000000 0.000000 8.682378 3.817292 -2.739941 1.752149 -7.261149 -20.534942 3.954283 -9.097817 -3.997526 -5.908830 -51.993364 -44.301481 14.926962 -13.259080 14.902371 0.000000 0.000000 0.000000 7.768260 2.065325 -3.525257 -0.040400 18.217585 21.537434 -7.551931 -3.148176 3.322832 4.408779 42.699515 46.646295 16.477440 31.290101 0.486244 0.000000 0.000000 0.000000 
0.164326 120.872505 -15.694555 0.000000 0.000000 0.000000 -7.171709 -5.254101 5.996111 -2.085819 18.359721 -5.016870 7.553666 1.229717 3.800879 -0.924243 1.169662 -1.451911 2.503221 -1.747920 0.231749 0.000000 0.000000 0.000000 -7.233518 -4.330339 5.860488 -4.475359 -12.418235 -6.983830 14.769951 4.082871 -2.835886 -7.420522 -13.432633 9.128766 -0.673227 2.947607 -8.797290 0.000000 0.000000 0.000000 -8.972666 2.091221 5.395263 6.814729 -4.899236 -2.697569 7.463558 1.770321 -3.550821 0.145216 -0.821590 0.159486 0.000000 0.000000 0.000000 9.086276 3.705783 -1.780991 3.715952 2.852185 5.278741 8.902101 -39.202544 4.176343 0.000000 0.000000 0.000000 7.500921 3.458466 -2.736547 2.239131 -5.522278 -16.767086 3.664422 -8.452958 -2.859078 -5.622327 -48.018303 -48.256769 17.175499 -13.040896 16.432954 0.000000 0.000000 0.000000 6.388243 1.596546 -3.385159 1.299010 15.813314 18.629641 -7.912470 -3.957822 2.343185 7.211874 43.880427 47.486323 17.498914 34.732475 0.084908 0.000000 0.000000 0.000000 
0.466171 121.028549 -15.570215 0.000000 0.000000 0.000000 -7.591524 -5.955971 6.469752 -0.720445 18.504724 -5.471489 6.680817 1.155653 3.579894 -0.671162 1.094766 -1.168703 2.809745 -1.611729 -0.024866 0.000000 0.000000 0.000000 -7.722144 -4.476769 6.431821 -4.118687 -13.112731 -7.829973 14.435019 4.748694 -2.704326 -7.075049 -12.894298 10.222211 -1.638947 2.963687 -9.176521 0.000000 0.000000 0.000000 -9.217685 1.591419 5.374127 6.177766 -4.413368 -2.760805 6.653417 1.505189 -3.675885 0.158265 -0.792283 0.202087 0.000000 0.000000 0.000000 8.474763 3.457776 -1.822323 4.039677 2.759752 4.609899 4.548223 -37.570699 3.445640 0.000000 0.000000 0.000000 6.526610 3.208760 -2.857956 2.557610 -4.946316 -12.858580 3.463475 -7.807010 -2.344092 -4.653766 -42.520076 -50.981840 20.529448 -14.003061 17.884309 0.000000 0.000000 0.000000 5.152828 1.372143 -3.198057 2.424357 13.102244 15.368604 -8.480730 -4.720696 1.975640 8.605992 43.365575 48.479586 17.428623 37.685593 0.818338 0.000000 0.000000 0.000000 
0.814599 120.972656 -15.379385 0.000000 0.000000 0.000000 -7.868909 -6.304555 6.635006 -0.348980 18.312813 -5.529350 6.914133 1.122761 3.408217 -0.321075 0.930039 -0.825637 2.641316 -1.477963 -0.340029 0.000000 0.000000 0.000000 -8.017227 -4.675308 6.690216 -4.118285 -13.514340 -8.515735 14.723371 5.352731 -2.632645 -6.842066 -12.577060 11.542547 -1.861600 2.964701 -9.588159 0.000000 0.000000 0.000000 -9.091693 1.015983 5.253670 5.454734 -3.803128 -2.465354 6.052021 1.400666 -3.767658 0.128465 -0.800905 0.207204 0.000000 0.000000 0.000000 8.043396 3.339141 -1.905705 4.149688 2.438730 4.056808 -0.666212 -36.415051 1.609922 0.000000 0.000000 0.000000 5.736501 3.050198 -3.125102 2.743917 -5.454652 -9.612855 2.986850 -7.017396 -2.099081 -4.135064 -35.747482 -53.051380 24.540407 -14.466655 18.930586 0.000000 0.000000 0.000000 4.213157 1.373082 -2.996043 3.147274 10.468575 12.202661 -9.212306 -5.056713 2.248413 8.768754 41.456222 49.255028 16.218429 38.695617 2.729214 0.000000 0.000000 0.000000 
1.120497 120.777565 -15.115774 0.000000 0.000000 0.000000 -8.051652 -6.303767 6.530528 -0.744577 18.006812 -5.283006 7.754443 1.112281 3.267811 0.080433 0.680172 -0.554287 2.572979 -1.348638 -0.660490 0.000000 0.000000 0.000000 -8.140172 -4.882582 6.661807 -4.220810 -13.588352 -8.895210 15.339155 5.683412 -2.591117 -7.192854 -12.661850 12.390460 -0.638832 2.875795 -9.910871 0.000000 0.000000 0.000000 -8.815840 0.429171 5.121103 4.636932 -3.123527 -1.884208 5.642771 1.393418 -3.812244 0.133449 -0.799682 0.185883 0.000000 0.000000 0.000000 7.664598 3.279146 -2.003439 3.976452 1.929991 3.620956 -5.849339 -35.290208 -0.871153 0.000000 0.000000 0.000000 5.119579 2.916399 -3.487548 2.861305 -6.853420 -7.326443 2.388277 -6.148782 -1.850768 -4.818747 -27.900134 -55.010791 28.287063 -13.433504 19.113268 0.000000 0.000000 0.000000 3.673640 1.508693 -2.800317 3.511273 8.253502 9.647825 -9.934414 -5.056108 2.937883 7.777379 38.616455 49.762583 14.440254 37.900146 5.287374 0.000000 0.000000 0.000000 
1.353026 120.507355 -14.831301 0.000000 0.000000 0.000000 -8.148829 -6.162102 6.298829 -1.415754 17.726235 -4.893272 8.519777 1.102627 3.157498 0.413784 0.327488 -0.431990 2.447820 -1.238444 -0.810413 0.000000 0.000000 0.000000 -8.136455 -4.953417 6.434252 -4.265673 -13.363452 -9.020942 16.019464 5.720403 -2.536021 -7.901620 -13.097868 12.804784 1.110743 2.747460 -10.096311 0.000000 0.000000 0.000000 -8.585691 -0.029855 5.031115 3.796489 -2.431999 -1.220582 5.378911 1.395425 -3.788188 0.178713 -0.785776 0.134068 0.000000 0.000000 0.000000 7.274079 3.201161 -2.066303 3.593850 1.272408 3.298940 -10.386127 -33.960104 -3.464160 0.000000 0.000000 0.000000 4.583784 2.746099 -3.808680 2.860778 -8.562455 -6.030230 1.411228 -5.417741 -1.224577 -6.463011 -19.300233 -56.894287 31.340572 -11.219945 18.307596 0.000000 0.000000 0.000000 3.508766 1.635447 -2.614566 3.650202 6.525967 8.127317 -10.655832 -4.689187 3.591982 6.070073 35.192946 50.168399 12.882180 36.093254 7.824179 0.000000 0.000000 0.000000 
